<?xml version="1.0" standalone="no"?>
<!DOCTYPE svg PUBLIC "-//W3C//DTD SVG 20010904//EN"
 "http://www.w3.org/TR/2001/REC-SVG-20010904/DTD/svg10.dtd">
<svg version="1.0" xmlns="http://www.w3.org/2000/svg"
 width="87.000000pt" height="87.000000pt" viewBox="0 0 87.000000 87.000000"
 preserveAspectRatio="xMidYMid meet">
<metadata>
Created by potrace 1.11, written by Peter Selinger 2001-2013
</metadata>
<g transform="translate(0.000000,87.000000) scale(0.100000,-0.100000)"
fill="#000000" stroke="none">
<path d="M190 795 c-14 -7 -38 -20 -55 -28 -16 -8 -40 -23 -52 -33 -13 -11
-34 -27 -48 -37 -27 -19 -33 -53 -12 -80 6 -9 41 -32 77 -50 36 -18 77 -45 92
-60 15 -15 34 -27 43 -27 9 0 34 -9 56 -21 40 -20 41 -22 34 -57 -4 -20 -8
-46 -9 -57 -1 -17 -8 -20 -59 -21 -74 0 -91 -16 -55 -49 15 -14 32 -25 38 -25
6 0 -1 -16 -16 -35 -22 -29 -26 -42 -21 -75 16 -119 206 -137 237 -22 5 22 7
47 4 56 -4 9 -3 16 2 15 5 -1 26 -1 47 0 l38 1 -18 30 c-9 17 -22 30 -29 30
-6 0 -23 9 -38 21 l-26 20 26 52 c15 29 27 53 28 54 1 1 34 -5 74 -13 53 -11
77 -12 92 -4 11 6 25 8 30 5 19 -12 141 -15 161 -5 32 17 42 57 24 93 -8 16
-15 36 -15 42 0 7 -8 23 -19 36 -10 13 -22 35 -26 49 -4 14 -19 34 -32 46 -27
23 -91 46 -105 38 -4 -3 -8 -1 -8 5 0 18 -64 73 -106 91 -56 24 -122 30 -165
16 -27 -10 -41 -9 -64 0 -40 17 -94 17 -125 -1z"/>
</g>
</svg>
